<mxfile host="Electron" agent="Mozilla/5.0 (Windows NT 10.0; Win64; x64) AppleWebKit/537.36 (KHTML, like Gecko) draw.io/24.7.17 Chrome/128.0.6613.36 Electron/32.0.1 Safari/537.36" version="24.7.17">
  <diagram id="ui-flow" name="用户界面流程图">
    <mxGraphModel dx="1050" dy="638" grid="1" gridSize="10" guides="1" tooltips="1" connect="1" arrows="1" fold="1" page="1" pageScale="1" pageWidth="1200" pageHeight="800" math="0" shadow="0">
      <root>
        <mxCell id="0" />
        <mxCell id="1" parent="0" />
        <mxCell id="start" value="启动App" style="ellipse;whiteSpace=wrap;html=1;fillColor=#fff2cc;strokeColor=#d6b656;fontSize=14;" parent="1" vertex="1">
          <mxGeometry x="300" y="60" width="160" height="50" as="geometry" />
        </mxCell>
        <mxCell id="check-login" value="已登录？" style="rhombus;whiteSpace=wrap;html=1;fillColor=#dae8fc;strokeColor=#6c8ebf;fontSize=14;" parent="1" vertex="1">
          <mxGeometry x="300" y="140" width="160" height="60" as="geometry" />
        </mxCell>
        <mxCell id="login" value="登录页" style="rounded=1;whiteSpace=wrap;html=1;fillColor=#ffe6cc;strokeColor=#d79b00;" parent="1" vertex="1">
          <mxGeometry x="100" y="240" width="160" height="50" as="geometry" />
        </mxCell>
        <mxCell id="home" value="主页" style="rounded=1;whiteSpace=wrap;html=1;fillColor=#d5e8d4;strokeColor=#82b366;" parent="1" vertex="1">
          <mxGeometry x="300" y="370" width="160" height="50" as="geometry" />
        </mxCell>
        <mxCell id="tag" value="标签页" style="rounded=1;whiteSpace=wrap;html=1;fillColor=#e1d5e7;strokeColor=#9673a6;" parent="1" vertex="1">
          <mxGeometry x="300" y="530" width="160" height="50" as="geometry" />
        </mxCell>
        <mxCell id="nav" value="导航页" style="rounded=1;whiteSpace=wrap;html=1;fillColor=#e1d5e7;strokeColor=#9673a6;" parent="1" vertex="1">
          <mxGeometry x="500" y="530" width="160" height="50" as="geometry" />
        </mxCell>
        <mxCell id="logout" value="退出登录" style="rounded=1;whiteSpace=wrap;html=1;fillColor=#f8cecc;strokeColor=#b85450;" parent="1" vertex="1">
          <mxGeometry x="100" y="530" width="160" height="50" as="geometry" />
        </mxCell>
        <mxCell id="e1" style="edgeStyle=orthogonalEdgeStyle;endArrow=block;html=1;" parent="1" source="start" target="check-login" edge="1">
          <mxGeometry relative="1" as="geometry" />
        </mxCell>
        <mxCell id="e2" value="否" style="edgeStyle=orthogonalEdgeStyle;endArrow=block;html=1;fontSize=12;" parent="1" source="check-login" target="login" edge="1">
          <mxGeometry relative="1" as="geometry">
            <mxPoint x="180" y="170" as="targetPoint" />
          </mxGeometry>
        </mxCell>
        <mxCell id="e3" value="是" style="edgeStyle=orthogonalEdgeStyle;endArrow=block;html=1;fontSize=12;" parent="1" source="check-login" target="home" edge="1">
          <mxGeometry relative="1" as="geometry">
            <mxPoint x="580" y="170" as="targetPoint" />
          </mxGeometry>
        </mxCell>
        <mxCell id="e4" style="edgeStyle=orthogonalEdgeStyle;endArrow=block;html=1;" parent="1" source="login" target="home" edge="1">
          <mxGeometry relative="1" as="geometry">
            <Array as="points">
              <mxPoint x="350" y="265" />
            </Array>
          </mxGeometry>
        </mxCell>
        <mxCell id="e5" value="标签" style="edgeStyle=orthogonalEdgeStyle;endArrow=block;html=1;fontSize=12;" parent="1" source="home" target="tag" edge="1">
          <mxGeometry relative="1" as="geometry" />
        </mxCell>
        <mxCell id="e6" value="导航" style="edgeStyle=orthogonalEdgeStyle;endArrow=block;html=1;fontSize=12;" parent="1" source="home" target="nav" edge="1">
          <mxGeometry x="0.5294" relative="1" as="geometry">
            <Array as="points">
              <mxPoint x="580" y="395" />
            </Array>
            <mxPoint as="offset" />
          </mxGeometry>
        </mxCell>
        <mxCell id="e7" value="退出" style="edgeStyle=orthogonalEdgeStyle;endArrow=block;html=1;fontSize=12;" parent="1" source="home" target="logout" edge="1">
          <mxGeometry x="0.5294" relative="1" as="geometry">
            <mxPoint as="offset" />
          </mxGeometry>
        </mxCell>
        <mxCell id="e8" style="edgeStyle=orthogonalEdgeStyle;endArrow=block;html=1;" parent="1" source="logout" target="login" edge="1">
          <mxGeometry relative="1" as="geometry" />
        </mxCell>
      </root>
    </mxGraphModel>
  </diagram>
</mxfile>
